<svg xmlns="http://www.w3.org/2000/svg" xmlns:xlink="http://www.w3.org/1999/xlink" version="1.1" width="1080" height="1080" viewBox="0 0 1080 1080" xml:space="preserve">
<desc>Created with Fabric.js 3.5.0</desc>
<defs>
</defs>
<rect x="0" y="0" width="100%" height="100%" fill="rgba(20,82,82,0)"/>
<g transform="matrix(1.5162 0 0 1.5162 540.0061 540.0061)" id="339650">
<g style="" vector-effect="non-scaling-stroke">
		<g transform="matrix(0.1333 0 0 -0.1333 -3.9244 3.9496)">
<path style="stroke: none; stroke-width: 1; stroke-dasharray: none; stroke-linecap: butt; stroke-dashoffset: 0; stroke-linejoin: miter; stroke-miterlimit: 4; is-custom-font: none; font-file-url: none; fill: rgb(0,0,0); fill-rule: nonzero; opacity: 1;" transform=" translate(-2470.9893, -2470)" d="M 1455 2479 c -369 -825 -671 -1505 -673 -1510 c -2 -5 137 -9 345 -9 l 348 0 l 494 1206 c 272 663 497 1207 500 1209 c 3 1 229 -540 501 -1203 l 496 -1207 l 347 -3 c 191 -1 347 0 347 4 c 0 3 -210 474 -466 1047 c -256 573 -559 1250 -672 1505 l -207 462 l -345 0 l -345 0 l -670 -1501 z" stroke-linecap="round"/>
</g>
		<g transform="matrix(0.1333 0 0 -0.1333 -3.884 143.9956)">
<path style="stroke: none; stroke-width: 1; stroke-dasharray: none; stroke-linecap: butt; stroke-dashoffset: 0; stroke-linejoin: miter; stroke-miterlimit: 4; is-custom-font: none; font-file-url: none; fill: rgb(0,0,0); fill-rule: nonzero; opacity: 1;" transform=" translate(-2470.9825, -1419.9206)" d="M 2363 1855 c -228 -62 -373 -281 -335 -506 c 53 -310 388 -472 664 -322 c 58 31 147 123 177 181 c 30 58 51 146 51 212 c 0 289 -282 509 -557 435 z" stroke-linecap="round"/>
</g>
</g>
</g>
</svg>