<?xml version="1.0" standalone="no"?>
<!DOCTYPE svg PUBLIC "-//W3C//DTD SVG 20010904//EN"
 "http://www.w3.org/TR/2001/REC-SVG-20010904/DTD/svg10.dtd">
<svg version="1.0" xmlns="http://www.w3.org/2000/svg"
 width="500.000000pt" height="500.000000pt" viewBox="0 0 500.000000 500.000000"
 preserveAspectRatio="xMidYMid meet">

<g transform="translate(0.000000,500.000000) scale(0.100000,-0.100000)"
fill="#000000" stroke="none">
<path d="M1455 2479 c-369 -825 -671 -1505 -673 -1510 -2 -5 137 -9 345 -9
l348 0 494 1206 c272 663 497 1207 500 1209 3 1 229 -540 501 -1203 l496
-1207 347 -3 c191 -1 347 0 347 4 0 3 -210 474 -466 1047 -256 573 -559 1250
-672 1505 l-207 462 -345 0 -345 0 -670 -1501z"/>
<path d="M2363 1855 c-228 -62 -373 -281 -335 -506 53 -310 388 -472 664 -322
58 31 147 123 177 181 30 58 51 146 51 212 0 289 -282 509 -557 435z"/>
</g>
</svg>
