<?xml version="1.0" standalone="no"?>
<!DOCTYPE svg PUBLIC "-//W3C//DTD SVG 20010904//EN"
 "http://www.w3.org/TR/2001/REC-SVG-20010904/DTD/svg10.dtd">
<svg version="1.0" xmlns="http://www.w3.org/2000/svg"
 width="396.000000pt" height="114.000000pt" viewBox="0 0 396.000000 114.000000"
 preserveAspectRatio="xMidYMid meet">

<g transform="translate(0.000000,114.000000) scale(0.100000,-0.100000)"
fill="#000000" stroke="none">
<path d="M1395 1016 c-22 -7 -54 -20 -71 -29 -46 -24 -112 -104 -125 -151 -18
-66 -6 -167 25 -220 15 -25 30 -46 35 -46 4 0 15 18 24 40 14 36 14 45 1 75
-56 134 73 281 214 245 114 -28 173 -145 128 -251 -13 -30 -12 -37 6 -72 23
-46 35 -40 69 30 47 97 19 246 -59 315 -70 61 -173 88 -247 64z"/>
<path d="M1420 849 c-54 -21 -78 -98 -46 -144 12 -18 1 -47 -105 -280 -65
-143 -118 -263 -118 -267 -1 -5 27 -8 62 -8 l63 0 67 169 c37 93 77 192 90
220 l23 52 63 -158 c36 -87 77 -186 92 -220 l28 -63 61 0 c33 0 60 2 60 5 0 3
-52 121 -116 262 -108 239 -115 260 -105 289 25 68 4 122 -56 145 -29 11 -31
11 -63 -2z"/>
<path d="M2785 711 c-98 -27 -155 -73 -195 -155 -30 -60 -32 -72 -28 -138 5
-82 24 -126 77 -181 64 -68 101 -82 221 -82 89 0 111 3 146 22 206 110 206
407 0 508 -58 28 -167 41 -221 26z m151 -120 c59 -27 87 -72 92 -147 4 -51 0
-70 -19 -104 -39 -69 -114 -100 -193 -79 -149 39 -173 257 -36 327 54 27 101
28 156 3z"/>
<path d="M286 695 c-55 -19 -88 -46 -108 -86 -35 -68 -13 -148 53 -188 17 -11
70 -29 118 -41 47 -12 96 -28 109 -36 30 -20 29 -59 -3 -80 -36 -24 -155 -15
-213 15 -24 12 -46 20 -50 17 -3 -3 -13 -24 -23 -46 l-18 -40 24 -16 c42 -27
116 -44 194 -44 101 0 148 15 192 59 44 44 57 94 40 152 -16 52 -62 82 -177
112 -113 31 -134 42 -134 70 1 74 108 88 241 33 13 -6 21 3 34 39 11 27 14 49
9 55 -37 35 -216 51 -288 25z"/>
<path d="M630 650 l0 -50 85 0 85 0 0 -225 0 -225 65 0 65 0 0 225 0 225 90 0
90 0 0 50 0 50 -240 0 -240 0 0 -50z"/>
<path d="M1790 650 l0 -50 85 0 85 0 0 -225 0 -225 65 0 65 0 0 225 0 225 90
0 90 0 0 50 0 50 -240 0 -240 0 0 -50z"/>
<path d="M2340 425 l0 -275 60 0 60 0 0 275 0 275 -60 0 -60 0 0 -275z"/>
<path d="M3260 425 l0 -275 65 0 65 0 2 162 3 163 134 -163 133 -162 54 0 54
0 0 275 0 275 -65 0 -65 0 -2 -164 -3 -163 -134 163 -134 164 -54 0 -53 0 0
-275z"/>
</g>
</svg>
