<?xml version="1.0" standalone="no"?>
<!DOCTYPE svg PUBLIC "-//W3C//DTD SVG 20010904//EN"
 "http://www.w3.org/TR/2001/REC-SVG-20010904/DTD/svg10.dtd">
<svg version="1.0" xmlns="http://www.w3.org/2000/svg"
 width="500.000000pt" height="500.000000pt" viewBox="0 0 500.000000 500.000000"
 preserveAspectRatio="xMidYMid meet">

<g transform="translate(0.000000,500.000000) scale(0.100000,-0.100000)"
fill="#000000" stroke="none">
<path d="M2445 4374 c-136 -19 -191 -29 -260 -51 -298 -94 -580 -332 -718
-609 -14 -27 -41 -96 -61 -152 -118 -341 -72 -736 122 -1042 52 -83 143 -193
152 -183 4 4 44 90 89 191 l81 183 -45 92 c-68 139 -80 196 -79 372 0 133 3
159 26 231 91 283 306 490 590 566 115 30 298 30 413 -1 297 -80 517 -300 596
-596 16 -61 21 -109 21 -205 0 -151 -21 -244 -85 -371 l-43 -85 85 -192 85
-192 24 23 c44 39 136 171 179 252 93 180 135 354 135 560 1 209 -39 377 -132
561 -61 119 -126 207 -227 306 -165 162 -378 275 -605 321 -77 16 -286 29
-343 21z"/>
<path d="M2454 3615 c-135 -29 -249 -119 -307 -242 -30 -64 -32 -74 -32 -184
0 -113 1 -117 37 -190 20 -41 48 -85 62 -98 l25 -23 -23 -52 c-13 -28 -99
-220 -191 -426 -92 -206 -175 -393 -185 -415 -10 -22 -119 -267 -243 -545
-124 -278 -268 -602 -321 -720 -53 -118 -96 -218 -96 -222 0 -4 125 -8 278 -8
l278 0 399 973 c219 534 401 975 404 979 3 4 186 -433 407 -970 l401 -977 282
-3 c225 -2 282 0 278 10 -3 7 -54 123 -115 258 -219 489 -327 731 -469 1050
-80 179 -186 415 -235 525 -49 110 -123 275 -164 368 l-75 167 40 56 c79 111
108 243 77 361 -22 88 -50 138 -114 205 -66 69 -148 112 -242 127 -78 13 -79
13 -156 -4z"/>
</g>
</svg>
